<svg id="visual" viewBox="0 0 900 600" width="900" height="600" xmlns="http://www.w3.org/2000/svg" xmlns:xlink="http://www.w3.org/1999/xlink" version="1.1"><rect x="0" y="0" width="900" height="600" fill="#DA0037"></rect><path d="M0 448L21.5 441.5C43 435 86 422 128.8 410.8C171.7 399.7 214.3 390.3 257.2 383.8C300 377.3 343 373.7 385.8 372.7C428.7 371.7 471.3 373.3 514.2 371.5C557 369.7 600 364.3 642.8 361.2C685.7 358 728.3 357 771.2 361.3C814 365.7 857 375.3 878.5 380.2L900 385L900 601L878.5 601C857 601 814 601 771.2 601C728.3 601 685.7 601 642.8 601C600 601 557 601 514.2 601C471.3 601 428.7 601 385.8 601C343 601 300 601 257.2 601C214.3 601 171.7 601 128.8 601C86 601 43 601 21.5 601L0 601Z" fill="#DA0037"></path><path d="M0 438L21.5 441.2C43 444.3 86 450.7 128.8 443.7C171.7 436.7 214.3 416.3 257.2 407.5C300 398.7 343 401.3 385.8 412.3C428.7 423.3 471.3 442.7 514.2 441.5C557 440.3 600 418.7 642.8 409.8C685.7 401 728.3 405 771.2 408.2C814 411.3 857 413.7 878.5 414.8L900 416L900 601L878.5 601C857 601 814 601 771.2 601C728.3 601 685.7 601 642.8 601C600 601 557 601 514.2 601C471.3 601 428.7 601 385.8 601C343 601 300 601 257.2 601C214.3 601 171.7 601 128.8 601C86 601 43 601 21.5 601L0 601Z" fill="#DA0037"></path><path d="M0 448L21.5 451.7C43 455.3 86 462.7 128.8 461.5C171.7 460.3 214.3 450.7 257.2 457C300 463.3 343 485.7 385.8 493.5C428.7 501.3 471.3 494.7 514.2 494.2C557 493.7 600 499.3 642.8 501.7C685.7 504 728.3 503 771.2 497.7C814 492.3 857 482.7 878.5 477.8L900 473L900 601L878.5 601C857 601 814 601 771.2 601C728.3 601 685.7 601 642.8 601C600 601 557 601 514.2 601C471.3 601 428.7 601 385.8 601C343 601 300 601 257.2 601C214.3 601 171.7 601 128.8 601C86 601 43 601 21.5 601L0 601Z" fill="#DA0037"></path><path d="M0 536L21.5 533.3C43 530.7 86 525.3 128.8 518.8C171.7 512.3 214.3 504.7 257.2 507.5C300 510.3 343 523.7 385.8 529.8C428.7 536 471.3 535 514.2 529.5C557 524 600 514 642.8 509.5C685.7 505 728.3 506 771.2 505.7C814 505.3 857 503.7 878.5 502.8L900 502L900 601L878.5 601C857 601 814 601 771.2 601C728.3 601 685.7 601 642.8 601C600 601 557 601 514.2 601C471.3 601 428.7 601 385.8 601C343 601 300 601 257.2 601C214.3 601 171.7 601 128.8 601C86 601 43 601 21.5 601L0 601Z" fill="#DA0037"></path><path d="M0 540L21.5 541.8C43 543.7 86 547.3 128.8 551.3C171.7 555.3 214.3 559.7 257.2 555.2C300 550.7 343 537.3 385.8 530.8C428.7 524.3 471.3 524.7 514.2 525.5C557 526.3 600 527.7 642.8 534.3C685.7 541 728.3 553 771.2 557.5C814 562 857 559 878.5 557.5L900 556L900 601L878.5 601C857 601 814 601 771.2 601C728.3 601 685.7 601 642.8 601C600 601 557 601 514.2 601C471.3 601 428.7 601 385.8 601C343 601 300 601 257.2 601C214.3 601 171.7 601 128.8 601C86 601 43 601 21.5 601L0 601Z" fill="#DA0037"></path></svg>