<svg xmlns="http://www.w3.org/2000/svg" data-name="Layer 1" width="392.91037" height="539.67757" viewBox="0 0 392.91037 539.67757" xmlns:xlink="http://www.w3.org/1999/xlink"><path d="M784.45844,266.35767c-1.38965,5.48828-6.082,9.72266-11.38184,11.71387-5.30078,1.99121-11.14453,2.01367-16.76855,1.35791-7.04883-.82178-14.09961-2.727-20.03223-6.623-5.93164-3.896-10.65625-9.96142-11.8916-16.95019-1.23437-6.98926,1.48047-14.79493,7.41309-18.69043l-3.708-1.25537c-9.041-3.811-20.10547-.25733-26.69727,7.01074-6.59179,7.26855-9.14648,17.52441-8.76757,27.3291s3.41894,19.30273,6.83886,28.5c2.2461,6.04394,4.999,12.42871,10.49121,15.8081,4.87012,2.99707,10.96094,3.02735,16.66309,2.6001,14.38477-1.07715,29.01367-4.68847,40.5332-13.37012C778.67035,295.10718,786.517,280.63453,784.45844,266.35767Z" transform="translate(-403.54481 -180.16121)" fill="#f35b25"/><path d="M548.40411,417.7233q-18.52441,3.74561-37.04785,7.4917-15.9668,77.77076-31.93555,155.541C545.16485,625.35611,572.98126,446.95816,548.40411,417.7233Z" transform="translate(-403.54481 -180.16121)" fill="#f35b25"/><path d="M499.8564,181.71241c-4.34057,3.32542-6.87178,8.44266-10.0408,12.80355a215.64934,215.64934,0,0,0-13.19481,22.40189A315.55986,315.55986,0,0,0,454.928,272.49654c-8.2704,5.52269-16.562,11.59526-21.07673,20.7236a69.48125,69.48125,0,0,0-5.54051,45.47582,77.736,77.736,0,0,0,14.781,34.81056c5.2561,7.2828,12.12789,13.1333,19.53341,18.13784-1.91956-2.03587-3.76677-4.13993-5.59839-6.25512-7.21351-7.82655-13.51816-21.22895-15.65589-27.27759-4.325-13.84625-4.78915-22.3582-5.81989-31.9212-.7085-13.02116.86266-21.293,4.1775-31.93151,2.32751-6.93745,8.73346-14.47181,15.03588-21.19973-.08181.29108-.17308.57938-.25378.871.246-.46917.502-.93306.74968-1.40168.21427-.22763.42966-.46278.64337-.68818-.143.09517-.28662.19368-.43021.28913A811.893,811.893,0,0,1,501.752,195.4134c-.04007,24.162-2.51619,50.09913-2.19172,74.73113,2.85068-15.57268,5.40026-31.19657,7.83908-46.83854,1.64573-11.26913,3.8163-22.60587,3.53023-34.03445C511.37152,182.7259,505.94122,177.41776,499.8564,181.71241Z" transform="translate(-403.54481 -180.16121)"/><path d="M628.149,235.70937c-1.24835-10.48327-1.21-21.448-4.881-31.44368-1.59342-4.81031-6.94915-8.23868-11.66428-5.28115-2.89687,1.84387-4.43018,5.026-5.97851,7.97348-2.42825,4.65419-4.71848,9.37851-6.98031,14.11507-6.2234,12.98443-12.82192,25.90095-17.34893,39.5627.04341-.42632.08793-.85375.13023-1.28063.58884-5.99521.58772-12.21443-1.68747-17.88489-8.84644-25.38-33.40554-24.553-53.79159-13.52957-8.17635,4.8885-14.71921,12.01685-21.27876,18.82074,10.63186-6.79248,21.03554-14.70335,33.73557-16.9983,17.31943-4.62609,30.53538-1.4451,38.69726,15.202,2.61637,4.8462,3.37439,10.42844,4.15023,15.81423a119.33648,119.33648,0,0,0-3.43672,12.4543c10.2445-20.00787,24.73163-37.36793,35.50541-57.06663.41575-.70182.81814-1.4117,1.22554-2.11881,3.43895,18.62511,6.73487,37.27722,11.01032,55.73925,1.57338,7.18235,3.07553,14.38055,4.69844,21.55176.01057-.67566.02505-1.35187.03673-2.02809A454.9584,454.9584,0,0,0,628.149,235.70937Z" transform="translate(-403.54481 -180.16121)"/><path d="M632.15228,285.77287c3.597,8.75823,5.4893,16.66715,5.48262,25.06195.09573,7.62091.212,11.0504-1.47709,17.38566-2.34032,8.8598-7.93481,16.37746-11.65649,21.05392.06568-.08349.31724-.41019.69792-.905-6.2579,7.65708-13.29832,14.17656-20.42,20.5135-6.21671,5.30981-14.75649,11.868-19.63748,15.70709q-3.54387,2.6773-7.30812,5.04406c8.98057-2.49893,17.29327-6.86455,25.55533-11.09326,20.44-11.01923,40.99249-29.30484,41.33867-54.2154C644.69425,310.55237,640.65644,296.71586,632.15228,285.77287Z" transform="translate(-403.54481 -180.16121)"/><path d="M492.82489,281.53081c-12.01936.298-11.98764,17.9066.00055,18.23719C504.84536,299.47,504.81364,281.86113,492.82489,281.53081Z" transform="translate(-403.54481 -180.16121)"/><path d="M579.20777,287.10388c-12.01936.29775-11.98819,17.90659,0,18.23719C591.22769,305.04331,591.19652,287.43447,579.20777,287.10388Z" transform="translate(-403.54481 -180.16121)"/><path d="M534.36058,324.88894a61.3899,61.3899,0,0,0-10.45544-.723c3.58421.98955,7.17956,1.983,10.68251,3.23024.00891-.07819.11187.00946.23153.10881-2.54179,2.97952-6.23675,6.48108-9.19039,9.58916a26.459,26.459,0,0,1-3.26642,2.92859c-1.61457-5.90755-2.2752-12.61459-3.7612-18.72139-.26381,5.72333-.39738,11.46336-.09072,17.18753-.03951,5.52047,2.9503,7.48455,7.30979,3.6087a72.75622,72.75622,0,0,0,10.67751-12.19133C538.7607,327.26209,537.68655,325.27992,534.36058,324.88894Z" transform="translate(-403.54481 -180.16121)"/><path d="M530.256,356.64485a26.06148,26.06148,0,0,1-12.7106-1.51995c-4.56821-1.84693-9.68128-6.19974-14.27063-9.4414,3.74339,4.53593,7.60811,9.45643,13.11411,11.89581a19.86091,19.86091,0,0,0,16.287-.78363,17.28825,17.28825,0,0,0,2.15386-1.3413A21.94076,21.94076,0,0,1,530.256,356.64485Z" transform="translate(-403.54481 -180.16121)"/><path d="M784.34245,464.18585c-5.49932-31.727-17.54762-64.73457-43.42853-85.39667a94.728,94.728,0,0,0-13.65563-9.21432c-3.09668-1.84553-6.569-3.80656-10.2818-2.9297a7.85327,7.85327,0,0,0-5.86776,8.03665c.03618,3.00428,1.88283,5.60618,3.42894,8.05585,16.43673,23.06781,26.384,36.33664,31.88725,58.33976,3.80127,13.59914,1.51328,26.68012-5.87388,40.00154-5.86163,10.39478-10.51554,17.158-19.68423,24.79313-2.52286,2.31917-10.96747,6.30716-15.25406,9.48676a29.45616,29.45616,0,0,0-4.276,4.41515,44.09369,44.09369,0,0,0-5.47928-10.05806,74.88063,74.88063,0,0,0-40.919-27.88062c-14.63962-3.81129-25.941-1.20438-35.68185-7.691-4.19308-3.71612-6.19223-7.37547-9.45252-14.38973-4.50476-9.37349-9.01953-22.35013-12.51915-35.02455-2.02809-6.33638-3.88809-12.99055-7.81514-18.4498-2.9887-3.759-7.58919-5.59282-11.72773-7.77006,3.41947,2.495,7.046,4.52869,9.5605,7.9771,3.03879,4.76077,3.84468,10.58456,5.009,16.01988,2.14718,13.56046,4.60716,27.10923,9.14085,40.10868,2.047,6.10374,4.32889,12.27148,8.53867,17.24931,9.94675,12.38,27.36469,10.6391,41.21289,14.87838a65.67676,65.67676,0,0,1,34.81473,25.44625c5.94846,9.46866,9.85548,27.75316,12.74734,43.61108,3.5831,19.89684,2.08151,49.343-2.75718,71.78668-.2716,1.19882-.56991,2.39207-.88047,3.58087q.2421-.5418.48532-1.083a198.977,198.977,0,0,0,12.62378-45.70262c2.88295-19.88348,1.22219-40.23391-3.02766-59.80071a92.64615,92.64615,0,0,0-3.57642-12.09,28.92567,28.92567,0,0,1,5.14813-3.98549c5.45535-2.83009,11.58079-4.23121,16.84135-7.48956,12.838-7.84242,22.98961-19.71624,30.0317-32.92189,8.8175-15.23013,7.60087-33.74671,2.396-49.987a110.61752,110.61752,0,0,0-8.26261-20.23244c13.01837,18.49376,20.89362,43.77137,25.045,66.44931,1.471,9.73248,3.08943,24.63034,1.00959,33.94957-4.14522,19.98784-13.16086,33.51212-29.50019,47.71039-6.618,5.64486-19.53286,11.08852-30.71961,11.69044a55.80629,55.80629,0,0,0,33.58586-7.976c18.79709-12.00016,33.11335-31.068,37.66207-53.05916C787.46806,491.29119,786.20969,477.551,784.34245,464.18585Z" transform="translate(-403.54481 -180.16121)"/><path d="M570.86692,496.40259A388.81589,388.81589,0,0,0,564.6374,577.053C570.80013,550.6461,572.477,523.43057,570.86692,496.40259Z" transform="translate(-403.54481 -180.16121)"/><path d="M695.65543,643.73714C681.27461,629.294,663.73756,618.277,645.6551,609.061c-10.54171-4.83313-21.61548-8.31271-32.76439-11.47449a60.154,60.154,0,0,0-8.46965-8.07089,32.56,32.56,0,0,1-5.25945-5.98686,13.58357,13.58357,0,0,1-2.62415-6.12572c-2.293-10.05639.73187-26.48951,7.3148-33.48457,16.95322-17.85762,19.13213.19313,17.45745-33.169-1.39417,6.01664-1.6179,12.491-3.99717,18.20436-.24155.39682-.8443.56824-1.78487.82286-8.68783,1.40725-17.54317,8.50054-21.16078,14.15125a43.50176,43.50176,0,0,0-3.7868,38.83973c2.62193,5.142,7.14283,8.93911,12.0099,11.95146-21.50417-6.48943-44.04909-7.73221-66.17827-4.93413,1.07916-15.73131,2.35812-31.43895,3.941-47.12879,1.068-17.1764,1.471-34.39064,1.77987-51.59431-8.69339,32.12769-13.177,65.959-7.31258,98.92012a192.89582,192.89582,0,0,0-23.717,4.751,153.56305,153.56305,0,0,0-19.45159,6.30688,263.661,263.661,0,0,0,3.882-59.95822c-.85877-16.09751-2.829-32.18084-7.91087-47.54008,1.99024,18.789.723,37.65344.99734,56.49728-.08905,17.20088,1.28453,34.35585,1.67913,51.54032a155.10209,155.10209,0,0,0-38.3394,22.41191q-3.23247,2.719-6.38034,5.54162a137.32254,137.32254,0,0,0,3.00094-22.41136c.7302-16.4167-1.53164-32.7232-3.04658-49.0297-1.6808-24.14224-.83706-48.4008-3.87251-72.46233-1.91232-24.57079-3.86249-45.79779,4.92774-68.09728.63447-1.57505,3.98048-7.46173,6.55176-9.38629a96.42693,96.42693,0,0,1,9.87329-6.98087,2.39218,2.39218,0,0,0,.46416.73242c4.6951,3.49962,11.31922.35676,15.824-2.08429,3.45843-.19369,3.9649,7.06936,9.329,8.74347,3.37273,1.33852,7.27084-.04063,10.22169-.34,2.66479.14748,5.31733.70682,7.97432.09962,2.57351-.26492,4.92106-1.41587,7.42556-1.97577,1.09418-.09573,9.752-.89494,14.07416-2.65087a17.05229,17.05229,0,0,1,8.57762-.57214,27.72946,27.72946,0,0,0,11.68877-.23542,14.21825,14.21825,0,0,1,6.24565-.82537c11.28248,1.47709,17.84983,4.82867,25.36-9.78869,1.02184-2.17223-.266.0718-1.04743.84819a24.24537,24.24537,0,0,1-7.54577,6.00634c-3.29258,1.91789-8.98391-.66341-12.99222-1.91566-6.15772-2.2969-10.08144-.58271-15.01585-.709-3.46845-.0846-6.97363-1.63627-10.71591-1.66132-3.85136-.07513-7.55468,1.09975-11.27024,1.94349-3.06439.76137-4.369.482-9.24771,1.32349-2.785.60163-5.334,2.00861-8.18025,2.38762-2.18169.06456-7.21851-.42187-10.17938.99679a7.53875,7.53875,0,0,1-3.34935.37066c-1.03408-.15917-2.63139-2.95753-4.10738-4.33055-2.59688-2.8106-7.07492-4.48917-10.32075-1.74647-2.95419,2.09988-6.14659,5.2639-11.1567,4.30384-.75246-3.16179-.3818-6.5757-.80589-9.81707-.44413,2.74715-.94169,5.486-1.38471,8.23256a5.40334,5.40334,0,0,0,.06679,2.41712c-4.18307,1.76706-8.48079,3.36159-12.2776,5.88056a32.91432,32.91432,0,0,0-8.95609,10.15545c-12.40115,22.11193-12.2353,48.11195-11.69433,72.74841,1.30457,30.1252,1.112,60.53091,8.51752,89.96932,4.00218,17.68759,5.83214,33.63706,5.07244,51.66722a331.80293,331.80293,0,0,0-40.06305,44.02711c27.29234-26.26021,57.34408-51.02078,89.70886-60.9923,28.22791-8.89569,61.26-12.20719,84.24794-8.61491,16.1963,2.81811,32.01972,7.61117,47.6411,12.66969,15.95142,5.14591,27.0597,11.33925,44.235,21.675,24.573,14.96771,52.26941,45.73323,75.53229,75.64694q1.5987,2.04452,3.19852,4.08846C734.01041,692.36445,717.29707,665.92531,695.65543,643.73714Z" transform="translate(-403.54481 -180.16121)"/><path d="M789.63084,240.65337a54.09289,54.09289,0,0,0-17.96059-18.62789c-7.85744-5.49807-17.73462-8.20543-27.097-5.28991-1.72254.23973-12.93267,4.63109-8.53589,3.49266,6.61188-1.26,13.79811-2.255,20.50682.38792,13.71352,6.63107,23.30129,20.58919,26.28387,36.0596a22.62773,22.62773,0,0,1-3.10669,15.32335,36.98365,36.98365,0,0,1-31.69914,17.36145c-12.65662-.57241-24.95426-4.11294-34.104-14.73006-3.45064-4.53035-8.803-16.57364-6.78218-24.04651,3.11615-14.05579,16.47959-20.69313,30.4981-19.37952-14.87616-4.919-31.5806,1.13871-37.78507,15.99316-4.30829,10.13264-1.79322,22.03429,2.80448,31.64405,14.27229,26.246,54.49953,35.31146,77.52865,15.36175C797.42539,280.65631,801.60734,259.24342,789.63084,240.65337Z" transform="translate(-403.54481 -180.16121)"/></svg>