<svg id="visual" viewBox="0 0 900 675" width="900" height="675" xmlns="http://www.w3.org/2000/svg" xmlns:xlink="http://www.w3.org/1999/xlink" version="1.1"><rect x="0" y="0" width="900" height="675" fill="#000000"></rect><defs><linearGradient id="grad1_0" x1="25%" y1="100%" x2="100%" y2="0%"><stop offset="23.333333333333336%" stop-color="#000000" stop-opacity="1"></stop><stop offset="76.66666666666666%" stop-color="#000000" stop-opacity="1"></stop></linearGradient></defs><defs><linearGradient id="grad2_0" x1="0%" y1="100%" x2="75%" y2="0%"><stop offset="23.333333333333336%" stop-color="#000000" stop-opacity="1"></stop><stop offset="76.66666666666666%" stop-color="#000000" stop-opacity="1"></stop></linearGradient></defs><g transform="translate(900, 675)"><path d="M-562.5 0C-532.6 -70.9 -502.7 -141.9 -460.1 -190.6C-417.5 -239.3 -362.3 -265.7 -324.6 -324.6C-286.8 -383.4 -266.4 -474.6 -215.3 -519.7C-164.1 -564.7 -82 -563.6 0 -562.5L0 0Z" fill="#E60765"></path></g><g transform="translate(0, 0)"><path d="M562.5 0C511.3 55.2 460.1 110.4 440.7 182.5C421.2 254.7 433.5 343.7 397.7 397.7C362 451.8 278.3 470.8 204 492.4C129.7 514.1 64.8 538.3 0 562.5L0 0Z" fill="#E60765"></path></g></svg>