<svg xmlns="http://www.w3.org/2000/svg" data-name="Layer 1" width="512.06137" height="268.59574" viewBox="0 0 512.06137 268.59574" xmlns:xlink="http://www.w3.org/1999/xlink"><path d="M521.319,411.61975c-3.13575-1.52685-6.876-3.05664-9.95606-1.42016-3.30469,1.75586-3.96582,6.12109-4.23535,9.85327l-3.61523,49.97387-1.60059,3.1731a266.10143,266.10143,0,0,0,141.47754-2.144Q582.35372,441.33778,521.319,411.61975Z" transform="translate(-343.96931 -315.70213)" fill="#f35b25"/><path d="M850.08721,353.809c-16.7351-21.229-45.69831-26.85357-70.64424-33.03945-57.79665-10.91569-116.72454-1.534-174.66157,3.40309-38.413,3.89056-77.01785-.48686-115.43985,2.52651-3.85.2773-7.70154.573-11.549.86536,4.889.61724,9.42859,1.239,14.30858,1.91885,27.91359,3.35351,58.69527,11.244,88.03882,13.50831,32.57974,3.01071,65.31373.74028,97.94652-.029,30.64782-.64662,61.51438-3.16333,92.00059,1.16837,24.49622,4.214,65.41,15.52266,63.15247,28.93465,1.15654,31.7613-.80231,63.65238-2.56691,95.37328-2.48937,27.52509-1.78418,30.56886-9.6963,59.14254-4.09154,12.92657-3.255,12.46746-10.82672,24.26932-5.37541,7.24835-11.40948,7.83825-37.96575,8.05107-36.5211,2.05435-73.09934,2.94787-109.67513,2.04353-62.79987-1.49974-125.47324-6.53072-188.17435-10.173-18.04263-1.01269-36.07547-2.1931-54.14095-2.722-19.61542-1.1547-24.82351-.39809-43.21139-5.52885-3.93973-1.04655-7.35466-3.88566-8.65484-4.79673-.29954-.34035-.51257-.577-.68968-.76925-.31342-.46584-.66274-.907-.93453-1.39854a23.79459,23.79459,0,0,1-1.16552-4.98874c-.04571-9.336,8.37734-54.62637,8.59771-81.91089,2.14984-33.69383-3.58142-92.58152,19.67174-112.45506,11.35643-7.0692,25.3875-6.42135,35.37191-8.41733,14.47753-1.54158,38.22367-5.60558,56.3267-8.59568-18.48664-.04223-36.97327.34056-55.45582-.11345-13.352.28465-27.46306-1.5381-40.05438,3.83792C350.522,342.73677,355.27957,424.39567,351.641,462.43c-1.65523,23.34519-3.56674,32.38834-6.26015,53.11724-5.475,27.9236,4.87263,44.27958,32.867,50.642,25.91639,5.65985,52.64733,4.27151,78.95222,6.51623,54.31969,3.5445,108.71365,5.77187,163.03171,9.328,48.36153,2.60445,96.89119,3.2929,145.24863.29525,14.69137-1.241,30.003,1.00636,44.23571-3.44655,37.34137-13.04328,40.58081-84.54187,42.982-118.30549,1.01371-26.26428,2.76688-52.50592,3.3325-78.78489C855.91805,372.24071,855.70176,361.95083,850.08721,353.809Z" transform="translate(-343.96931 -315.70213)"/><path d="M640.3239,458.9771c-13.9266-13.00451-29.59984-24.33135-44.838-35.81367-15.27821-11.07525-57.28245-41.13562-59.71795-4.54-2.593,20.39-3.88587,40.92729-5.62435,61.40134,6.58581-19.79213,14.84318-46.734,19.92965-63.35856a13.228,13.228,0,0,1,1.73032.40136c.28648.07652.7615.24445,1.10757.36912q.61213.30669,1.22591.61275c7.162,3.688,13.62706,8.54038,19.98679,13.44893q-.96474-.745-1.92865-1.48975c5.24073,3.88689,19.8113,15.71344,40.54572,30.6917-19.51177,3.1013-39.08067,5.85308-58.54673,9.22964q18.17445,3.03132,36.535,4.75858c14.36326,1.26468,28.95015,2.22084,43.30688.52154C641.25761,473.90271,645.36222,464.73836,640.3239,458.9771Z" transform="translate(-343.96931 -315.70213)"/></svg>