<svg xmlns="http://www.w3.org/2000/svg" data-name="Layer 1" width="542.88369" height="218.43869" viewBox="0 0 542.88369 218.43869" xmlns:xlink="http://www.w3.org/1999/xlink"><path d="M788.43857,531.49616l8.19544-45.50077,74.80784,11.59937C850.78826,522.08606,817.37361,535.16486,788.43857,531.49616Z" transform="translate(-328.55815 -340.78065)" fill="#f35b25"/><path d="M653.00538,342.1717c24.54533-7.29563,52.87061,15.25528,51.26141,40.81129s-32.5395,44.37574-55.97581,34.05882S609.29841,355.16277,653.00538,342.1717Z" transform="translate(-328.55815 -340.78065)" fill="#f35b25"/><path d="M341.01443,464.81321c-7.26394,29.90294-13.99906,60.31136-12.14518,91.288C336.3627,526.2518,342.24592,495.72712,341.01443,464.81321Z" transform="translate(-328.55815 -340.78065)"/><path d="M397.03247,544.08043c-7.72917-11.24274-17.42934-21.12018-29.13111-28.22226,10.193-12.96324,23.53757-36.70635,29.86012-55.24858-10.18981,13.45653-21.1568,26.25813-32.12978,39.07343-4.94033,6.90468-17.92862,16.72538-6.86722,24.24089,14.502,8.164,24.56354,14.90961,36.38778,25.34178,3.76257,3.2513,7.4958,6.54456,11.11493,9.95366A130.746,130.746,0,0,0,397.03247,544.08043Z" transform="translate(-328.55815 -340.78065)"/><path d="M495.49278,474.2708a247.1981,247.1981,0,0,0-7.56346,65.30222C494.60363,518.51706,496.34639,496.2523,495.49278,474.2708Z" transform="translate(-328.55815 -340.78065)"/><path d="M525.96779,473.22c-5.4411,21.78946-8.36248,40.82218-6.57625,63.47382A171.12673,171.12673,0,0,0,525.96779,473.22Z" transform="translate(-328.55815 -340.78065)"/><path d="M648.54974,496.87661c-8.78211-8.06873-25.69548-16.77976-39.56286-21.55437,12.486,10.05557,22.071,16.4387,34.125,29.31031l.05737.0653c-3.542,9.08806-15.65853,23.30314-21.40686,35.35089q-2.6575,4.84388-5.25869,9.71965c3.59985-3.43136,7.07767-6.98689,10.512-10.58311C633.82917,530.06918,664.398,507.42247,648.54974,496.87661Z" transform="translate(-328.55815 -340.78065)"/><path d="M686.75135,472.16921c-7.60928,22.54287-9.56742,46.41722-8.24279,70.07019.25242,3.23524-.167,5.74662,1.24669.84826C687.33006,520.24055,687.06287,495.95813,686.75135,472.16921Z" transform="translate(-328.55815 -340.78065)"/><path d="M837.194,501.68677c-10.13928-7.04449-20.14946-14.23927-30.77025-20.55754-5.75412-3.42236-12.06082-8.71916-19.15412-7.39432-5.83226,1.354-7.35707,7.41295-7.46669,12.66971-.771,8.22995-1.50833,16.46376-2.44865,24.6768-.692,6.18059-1.26425,12.3734-1.85238,18.5647a19.00281,19.00281,0,0,0-.386,4.04689l-.0107.11283c.00128-.00942.01284-.01156.01434-.02077a9.828,9.828,0,0,0,.36975,2.53557,5.4431,5.4431,0,0,0,7.74523,2.61051c2.9156-1.70744,2.86935-5.37752,3.75294-8.28134,3.05947-12.39716,5.52759-24.92771,7.71718-37.4983,12.98508,7.81974,25.55717,16.35564,38.87517,23.60138-12.51984,5.88064-25.75606,9.97763-40.06256,17.28718-3.17144,1.63143-9.62737,3.39838-2.12193,2.2613,13.48885-2.08681,26.93211-4.56094,40.36808-6.96462,7.10743-2.00761,16.11477-2.764,21.08486-8.71253C858.36745,510.58235,842.862,506.905,837.194,501.68677Z" transform="translate(-328.55815 -340.78065)"/><path d="M819.44988,386.1142c-18.27374-2.32768-41.02664-6.931-61.49383-7.99166q-35.23121-2.47541-70.51487-2.99417c.65428-12.12783-4.94761-22.344-22.02561-20.07217-4.033.79516-6.75781,4.08607-9.45224,6.92566q.87-.535,1.74212-1.07413c3.88418-2.74882,8.74828-4.01328,13.272-2.04443,2.39791,1.14457,5.68047,2.54049,7.223,5.0949,1.43574,2.65226,1.26789,5.61174.96194,8.6057-.1.65257-.28775,1.51346-.51705,2.45335q-17.5533-.11175-35.113.346c3.42108-7.2329,10.25275-13.12511,15.43586-19.0854-7.9195,5.2542-17.10669,10.961-21.8053,19.26759-1.64256.0516-3.28513.08179-4.92791.14109-40.573.1351-81.14808-1.39506-121.71805-.271-22.1211.7943-44.39613.78831-66.21621,4.93775-12.29911,2.10395-26.71544,5.19082-37.46747,6.58739-10.91624,1.64492-21.9693,1.09319-32.96712,1.14628,28.257,5.8526,56.78816,1.66376,85.26392.52583,40.44365.63287,80.8173,4.05224,121.23291,5.69631a492.75264,492.75264,0,0,0,54.654.16806c5.58048,21.86225,34.60412,20.90759,46.69962.31922.5862-1.09447,1.136-2.227,1.6492-3.38468q.45538-.03243.91078-.06509c29.3542-.63309,58.67586-2.22063,88.017-3.09329,19.5714-.14645,39.11753,1.42525,58.69171.74121,3.50587-.07815,7.0113-.20318,10.515-.33121Q830.46023,387.5219,819.44988,386.1142ZM657.25863,400.03767c-4.19462.13788-7.27507-.18541-10.448-2.51373a30.079,30.079,0,0,1-2.65418-3.49773c8.7607-.483,17.519-1.07263,26.27568-1.69288C666.85667,395.95781,660.83493,399.34014,657.25863,400.03767Z" transform="translate(-328.55815 -340.78065)"/></svg>