<svg xmlns="http://www.w3.org/2000/svg" data-name="Layer 1" width="291.29274" height="359.92901" viewBox="0 0 291.29274 359.92901" xmlns:xlink="http://www.w3.org/1999/xlink"><path d="M632.31587,359.36031a8.2222,8.2222,0,0,0-4.74761-5.32077c-2.76751-1.16682-5.9608-.7148-8.91272-.88914-6.10531.05779-12.20289.57272-18.29507.95078-9.30606.77384-18.4199,2.90231-27.65371,4.2069-10.47585,1.43965-38.68708,4.73018-56.8337,4.84835-12.15049.58575-24.28967,1.41638-36.45472,1.65182-7.65388.37645-15.3082.66474-22.9202-.43135a98.74672,98.74672,0,0,0,19.87213,4.65065c8.59873,1.49986,17.20554,2.94553,25.87194,4.00415,1.65173.20472,3.28334.41527,4.90685.62664-12.75835.56489-25.534.64173-38.28331,1.50444,3.07467.72872,6.17316,1.36075,9.27793,1.95036,9.50341,1.6742,18.88244,4.03659,28.45163,5.3321,15.26174,1.84576,30.58783,3.45993,45.94357,4.24877a277.5471,277.5471,0,0,0,48.0964-1.7877c7.63914-1.20277,15.99307-.93416,22.76051-5.13575,4.42445-2.73156,5.6265-7.952,7.33395-12.53961.14918-.32577.284-.65836.45364-.97406A8.84968,8.84968,0,0,0,632.31587,359.36031Z" transform="translate(-397.29844 -206.03818)" fill="#ff0066"/><path d="M425.09123,274.84919,422.83785,510.744c-.1477,15.46249,13.46279,29.76063,28.91379,30.37462q76.97345,3.05865,153.94687,6.11734a14.71152,14.71152,0,0,0,3.98523-29.01289c-29.98654-7.12549-60.57849-14.49887-86.70011-30.85812s-47.44808-43.602-48.45359-74.40711C472.89278,362.79836,454.35017,313.339,425.09123,274.84919Z" transform="translate(-397.29844 -206.03818)" fill="#ff0066"/><path d="M687.73311,270.56312c-.10748-11.18911.21028-22.37552.25809-33.56382-.16751-6.37644.73223-13.16122-1.70368-19.194-3.182-5.89187-10.9178-5.99405-16.76376-7.13157-9.32736-1.17815-12.94967-1.93014-20.53291-2.52577-37.43238-3.54719-75.01267-1.67537-112.52574-1.10922-28.34837.349-56.96265-.64272-84.933,4.81475-25.77668,5.3578-31.65552,14.44153-36.10389,39.637-.572,3.23948-1.01818,6.50179-1.36308,9.77282.66087-2.24925,1.35005-4.4906,2.09828-6.71244.57118-1.74879,1.24877-3.642,1.94164-5.48586-3.01779,12.05721-6.10046,24.11317-8.05387,36.39667-3.90953,23.39074-5.72257,47.06752-7.05645,70.72714-2.01821,34.6725-4.83667,69.31651-5.64492,104.04716-.29162,20.46543.72566,40.91845,1.32732,61.37013.46972,9.20963.56759,18.44721,1.3665,27.63573.30248,18.58265,21.572,15.42728,34.64266,15.34541,14.14777-.61127,28.24943-2.08759,42.41157-2.43456,11.192-.349,22.3855.22655,33.57947.16868,14.965.07234,29.903-1.04352,44.86176-1.25606,17.56977.20076,35.14763-.67462,52.70939-.07971,11.66316.63877,23.25855,2.14187,34.86329,3.42326,6.097.47863,12.20828,1.969,18.33192,1.45026,7.08341-.4132,11.07148-7.14038,13.33538-13.131,3.85686-8.765,4.04792-18.58418,4.68848-27.9987.75236-14.80217.28721-29.64649,1.43462-44.432,1.28544-19.32638,3.9958-38.52218,5.5077-57.82887,1.54929-20.72065,1.81745-41.51076,2.06961-62.28011C688.97325,330.31,687.66553,300.44218,687.73311,270.56312Zm-9.9593,146.77021c-1.467,21.14868-4.61785,42.141-6.06613,63.29119-1.45349,19.04024-.19572,44.63216-2.525,59.35093-1.62639,11.16655-6.65618,17.666-8.52216,17.01691-6.24424.18144-12.44373-1.24329-18.65112-1.81061-14.40874-1.64967-28.8421-3.58925-43.36945-3.57721q-23.7157.22364-47.43193.34877c-11.1351.33125-22.26248.93137-33.40153,1.12477-15.54311.29215-31.08991-.706-46.62565.06614-18.99217.46379-54.71529,5.50491-60.82258-.36693-.05814-.09337-.11844-.18566-.17011-.283a22.16907,22.16907,0,0,1-.68829-3.56417c-.21909-4.25336-1.03274-21.76444-1.22864-30.76217-.40647-19.99031-1.33352-39.98555-.76584-59.98179.95213-36.3015,3.5249-72.53021,5.34019-108.79253.87736-20.5712,1.01378-41.1707,2.2205-61.72833.67282-13.587,2.4-27.08477,3.806-40.608.94153-2.42116,1.85142-4.61775,2.50358-6.0982a44.00461,44.00461,0,0,1,7.49571-12.17144c6.80213-6.21917,17.30745-7.05312,24.00309-7.98485,20.01169-1.65893,40.1128-2.16828,60.186-2.456,40.58909-.12949,81.161-3.52741,121.73924-1.2627,9.23659.40988,18.455,1.17643,27.64166,2.21286,7.16447,1.02555,8.61311.6438,15.5982,2.76643.02876.01617.05967.028.08807.04457a10.37483,10.37483,0,0,1,.49948,1.97337l-.021-.15628c.35946,3.26815.43531,6.55949.51619,9.84409-.11952,28.4199-.02085,56.839.53434,85.25656C680.13944,351.79541,679.69334,384.6129,677.77381,417.33333Z" transform="translate(-397.29844 -206.03818)"/><path d="M499.5811,277.32122c-2.43689-5.41919-7.17229-10.06633-12.96046-11.698a29.58388,29.58388,0,0,0-6.43314-.65836,23.35734,23.35734,0,0,1,6.98186,2.69022,19.44,19.44,0,0,1,8.43293,13.06012c.554,6.95652-1.13708,12.63254-5.44731,18.6256-6.07521,9.21072-17.04765,15.09262-23.94351,13.75424-8.55469-1.6378-13.851-10.78525-14.46894-20.79927-.66771-7.55494.70823-14.99376,5.20449-21.58767,3.93118-5.18625,9.89243-8.09818,15.19057-11.642-8.62847,3.06308-18.206,6.37635-22.68628,15.05119-5.35251,9.65672-7.0472,21.87048-3.29251,32.36106,5.33749,14.63969,19.91374,21.35465,34.04092,13.95365,10.32128-5.06978,17.7141-15.66739,20.47936-26.67264C501.65368,288.32341,501.84239,282.47224,499.5811,277.32122Z" transform="translate(-397.29844 -206.03818)"/><path d="M601.7577,265.96621a345.83356,345.83356,0,0,0-59.24075,3.48392c16.9336,2.2365,34.05494,4.10238,51.1557,3.39,12.739-.651,25.21816-3.42991,37.80837-5.26425C624.70945,265.96666,610.92726,266.17614,601.7577,265.96621Z" transform="translate(-397.29844 -206.03818)"/><path d="M635.3564,294.5539c-20.76459-4.54587-42.08186-1.98936-62.91834.6402-10.3193,1.18147-20.719,1.25893-31.07481,1.94632,12.22715,2.55506,24.61265,4.84745,37.15693,4.4648,18.01919-.36638,33.58648-4.20437,48.503-5.47885,3.91258-.36935,7.83577-.61369,11.76039-.81149C637.6451,295.0478,636.50255,294.78962,635.3564,294.5539Z" transform="translate(-397.29844 -206.03818)"/><path d="M605.95426,318.75577c-23.5223-2.15256-46.91772,2.41541-70.35986,3.76735a205.04634,205.04634,0,0,0,36.6819,3.295c17.86228-.17731,35.6045-2.561,53.39669-3.88275.73259-.05167,1.46643-.09867,2.1983-.14873A159.85722,159.85722,0,0,0,605.95426,318.75577Z" transform="translate(-397.29844 -206.03818)"/><path d="M620.55692,371.07927c-25.0528-2.438-50.2441-1.25875-75.3555-.65943-33.2014.49444-66.39749,1.54362-99.60033,1.715,30.54254,6.52489,61.86026,10.01564,93.10932,9.35234,27.50516-1.13977,54.64672-6.16785,82.03883-8.59666,2.92819-.30276,5.86177-.5604,8.79391-.80969Q625.06217,371.47761,620.55692,371.07927Z" transform="translate(-397.29844 -206.03818)"/><path d="M611.04049,413.86936c-21.832-2.91785-43.92258-3.61935-65.92732-3.92786-30.96535.0142-61.677,4.73665-92.58953,6.03629,51.8731,8.2594,104.45641,1.85663,156.47186-1.62459C610.47182,414.17562,614.88171,414.30719,611.04049,413.86936Z" transform="translate(-397.29844 -206.03818)"/><path d="M621.83194,475.33376c-10.40862-2.48309-20.83738-4.99664-31.45467-6.41948-10.64336-1.43237-21.38089-2.00949-32.07574-2.938-15.28008-1.12341-30.5881-2.19272-45.91823-2.05981-19.56937.47943-39.131,1.24563-58.706.51924,18.907,4.9765,35.58787,7.38168,54.50024,8.94336,13.30455,1.12548,26.57379,2.83428,39.93316,3.1658,13.79288.47467,27.58235-.10694,41.36553-.57047,10.06534-.21064,20.13391-.0053,30.20051-.15358C621.19605,475.69529,625.776,476.11963,621.83194,475.33376Z" transform="translate(-397.29844 -206.03818)"/><path d="M483.40892,285.852c-.35488-1.14974-.77428-2.27863-1.21822-3.39684a55.59775,55.59775,0,0,1-.41374,5.83491c-1.03184,5.35115-2.86447,9.52254-7.90631,11.6742-2.96252,1.01459-3.46792,1.2654-6.655.33044-.93757-.52527-2.06467-2.55138-2.53377-3.59814-1.86786-5.55892-2.08983-10.72082-1.75445-16.68773.3902-2.72914.18063-6.69483,3.2456-7.8275-2.13351-.00593-3.419,1.72956-4.31788,3.46343a36.02907,36.02907,0,0,0-3.39836,9.81524c-2.98265,12.063,1.31887,27.37279,16.58474,21.58578C483.23117,303.7647,486.22424,293.78527,483.40892,285.852Z" transform="translate(-397.29844 -206.03818)" fill="#ff0066"/></svg>